<svg height="416" viewBox="0 0 571 416" width="571" xmlns="http://www.w3.org/2000/svg"><g fill="none" fill-rule="evenodd"><path d="m0 0h571v416.152542h-571z"/><path d="m350.813803 28.0661017c95.331285.0564674 189.106926 37.2779813 202.501454 128.5067823 19.720478 134.325641-140.142702 241.485721-331.970901 229.880658-109.482077-6.623025-180.7847629-32.392698-221.15456079-64.295756-.0634916-.050175-.12683289-.100452-.19002412-.150829l.0021054-139.172684c8.39612224-5.206715 17.95500081-9.664806 28.57681211-13.195659 3.5319092-1.175609 7.178069-2.246448 10.9422199-3.204012 3.5247685-.903818 7.1512065-1.710349 10.8755736-2.415851 1.083341-.20614 2.1500204-.416702 3.2044587-.638829 84.5298392-17.639246 80.2270772-83.3587478 184.8283072-117.8735704 34.020851-11.2274798 73.124496-17.4215408 111.998279-17.4402499z" fill="#d3dde8"/></g></svg>
