<svg height="408" viewBox="0 0 617 408" width="617" xmlns="http://www.w3.org/2000/svg" xmlns:xlink="http://www.w3.org/1999/xlink"><filter id="a"><feColorMatrix in="SourceGraphic" type="matrix" values="0 0 0 0 0.827451 0 0 0 0 0.866667 0 0 0 0 0.909804 0 0 0 1.000000 0"/></filter><g fill="none" fill-rule="evenodd"><path d="m0 0h617v408.169231h-617z"/><g filter="url(#a)"><path d="m384.518741 0c-38.128043.01835016-76.481538 6.0935867-109.849746 17.1056828-102.5946 33.8527034-98.374381 98.3114672-181.2826318 115.6123282h-.0036686c-1.0305418.217867-2.0767584.42439-3.139317.626575-3.6529203.691968-7.2097901 1.483026-10.6669408 2.369506-3.6919408.939194-7.2681541 1.98949-10.7323085 3.142547-22.9100436 7.615649-40.7784368 19.62933-52.5639656 34.178002-48.8910348 60.350664 6.9089653 164.27828 241.6316893 178.477631 188.148241 11.382436 344.944667-93.721925 325.602499-225.470715-13.137573-89.4787022-105.114257-125.98617289-198.616744-126.041557z" fill="#d3dde8" transform="translate(16.136923 27.527692)"/></g></g></svg>
